# xmcd
#
# Track frame offsets:
#	150
#	14064
#	31572
#	49558
#	70764
#	89241
#	106551
#	121662
#	138475
#	156100
#	170449
#	187781
#	204629
#	219672
#
# Disc length: 3144 seconds
#
# Revision: 1
# Processed by: cddbd v1.5.1PL0 Copyright (c) Steve Scherf et al.
# Submitted via: audiograbber 1.83.01
#
DISCID=b60c460e
DTITLE=Various Artist - Star Disc 100
DYEAR=1900
DGENRE=Country
TTITLE0=George Strait - She'll Leave You With A Smile
TTITLE1=Dixie Chicks - Landslide
TTITLE2=Tim McGraw - Red Ragtop
TTITLE3=Kenny Chesney - A Lot Of Things Different
TTITLE4=Andy Griggs - Practice Life
TTITLE5=Gary Allan - Man to Man
TTITLE6=Pinmonkey - I Drove All Night
TTITLE7=Mark Chesnutt - I Want My Baby Back
TTITLE8=Tommy Shane - John J Blanchard
TTITLE9=Brad Martin - Just Like Love
TTITLE10=Josh Gracin - Wheels
TTITLE11=Jo Dee - You Da Man
TTITLE12=Trace Adkins - Chrome
TTITLE13=Alabama - This Side
EXTD=
EXTT0=
EXTT1=
EXTT2=
EXTT3=
EXTT4=
EXTT5=
EXTT6=
EXTT7=
EXTT8=
EXTT9=
EXTT10=
EXTT11=
EXTT12=
EXTT13=
PLAYORDER=
